<?xml version="1.0" encoding="UTF-8" standalone="no"?>
<!DOCTYPE svg PUBLIC "-//W3C//DTD SVG 1.1//EN" "http://www.w3.org/Graphics/SVG/1.1/DTD/svg11.dtd">
<svg version="1.1" xmlns="http://www.w3.org/2000/svg" xmlns:xlink="http://www.w3.org/1999/xlink" preserveAspectRatio="xMidYMid meet" viewBox="0 0 48 48" width="48" height="48"><defs><path d="M29.57 34.9C31.26 33.17 32.1 31.06 32.1 28.57C32.1 26.03 31.76 23.54 31.09 21.12C29.34 23.49 26.56 25.08 22.73 25.89C19.36 26.64 17.67 28.54 17.67 31.61C17.67 33.23 18.23 34.62 19.36 35.77C20.48 36.87 21.86 37.42 23.49 37.42C25.91 37.42 27.94 36.58 29.57 34.9ZM35.22 14.53C37.36 18.8 38.43 23.37 38.43 28.23C38.43 32.27 37.02 35.74 34.21 38.63C31.4 41.52 27.99 42.97 24 42.97C20.01 42.97 16.6 41.52 13.79 38.63C10.98 35.74 9.57 32.27 9.57 28.23C9.57 21.98 11.51 16.49 15.39 11.75C15.39 11.82 15.39 12.37 15.39 12.44C15.39 14.35 16.01 15.97 17.25 17.3C18.49 18.63 20.03 19.3 21.89 19.3C23.69 19.3 25.15 18.66 26.28 17.39C27.46 16.06 28.05 14.41 28.05 12.44C28.05 11.29 27.94 9.96 27.71 8.46C27.49 6.95 27.26 5.77 27.04 4.9C27.02 4.81 26.9 4.34 26.7 3.51C31 7.96 33.84 11.64 35.22 14.53Z" id="ew31XieE4"></path><linearGradient id="gradientejNjndodZ" gradientUnits="userSpaceOnUse" x1="24" y1="2.3" x2="24" y2="46.7"><stop style="stop-color: #bc9cff;stop-opacity: 1" offset="0%"></stop><stop style="stop-color: #8ba4f9;stop-opacity: 1" offset="100%"></stop></linearGradient></defs><g><g><g><use xlink:href="#ew31XieE4" opacity="1" fill="url(#gradientejNjndodZ)"></use><g><use xlink:href="#ew31XieE4" opacity="1" fill-opacity="0" stroke="#000000" stroke-width="1" stroke-opacity="0"></use></g></g></g></g></svg>